<?xml version="1.0" encoding="UTF-8"?>
<svg id="Layer_2" xmlns="http://www.w3.org/2000/svg" viewBox="0 0 690.3 171.84">
  <defs>
    <style>
      .cls-1 {
        fill: #fff;
      }
    </style>
  </defs>
  <g id="Layer_3">
    <g id="t_x5F_white">
      <g>
        <path class="cls-1" d="M70.73,60.04c-3.29-4.49-7.75-7.57-13.4-9.24,4.53-2.04,8.03-5.15,10.49-9.37,2.45-4.21,3.67-8.73,3.67-13.54,0-4.16-.9-8.16-2.7-12-1.8-3.84-4.4-6.99-7.77-9.44-3.38-2.45-7.38-3.68-12.01-3.68H0v75.25h12.49V13.6h32.2c2.78,0,5.26.74,7.43,2.22,2.17,1.48,3.89,3.45,5.14,5.9,1.25,2.45,1.87,5.25,1.87,8.39,0,2.96-.67,5.69-2.01,8.19-1.34,2.5-3.15,4.49-5.41,5.97-2.27,1.48-4.89,2.22-7.85,2.22h-18.9v10.13h22.78c2.96,0,5.57.79,7.85,2.36,2.27,1.57,4.07,3.66,5.41,6.25,1.33,2.59,2.01,5.41,2.01,8.47s-.71,5.72-2.15,8.26c-1.43,2.54-3.39,4.6-5.83,6.17-2.45,1.57-5.21,2.36-8.26,2.36H0v10.83h46.78c5.27,0,10.11-1.06,14.51-3.19s7.88-5.09,10.48-8.88c2.59-3.79,3.89-8.24,3.89-13.33,0-6.11-1.64-11.4-4.92-15.89Z"/>
        <path class="cls-1" d="M149.44,90.73c-.61-.68-.91-1.77-.91-3.24v-30.41c0-9.08-2.68-16.17-8.05-21.26-5.37-5.1-12.68-7.64-21.93-7.64-5.09,0-9.99.81-14.71,2.43-4.72,1.62-9.44,4.04-14.16,7.28l4.44,8.61c4.07-2.68,7.93-4.74,11.6-6.17,3.65-1.43,7.47-2.16,11.45-2.16,6.11,0,10.83,1.57,14.16,4.73,3.33,3.15,5,7.46,5,12.94v5.24c-2.78-1.02-5.97-1.78-9.58-2.29-3.61-.51-7.03-.77-10.27-.77-6.11,0-11.48.93-16.1,2.76-4.63,1.84-8.25,4.44-10.89,7.8-2.65,3.36-3.96,7.33-3.96,11.93,0,4.14,1.06,7.88,3.19,11.24,2.13,3.36,5.09,6.02,8.88,8,3.79,1.97,8.1,2.96,12.91,2.96s10.04-1.11,15.13-3.33c5.09-2.22,9.21-5.37,12.35-9.44l.28,4.58c.19,1.76.99,3.42,2.43,5,1.43,1.57,3.58,2.36,6.45,2.36.56,0,1.27-.05,2.15-.14.88-.09,1.92-.23,3.13-.42v-9.44c-1.39-.09-2.39-.48-2.98-1.17ZM136.31,78.31c0,.92-.32,2.04-.97,3.37-.65,1.32-1.53,2.63-2.64,3.91-2.04,2.29-4.77,4.19-8.19,5.7-3.42,1.52-7.03,2.27-10.83,2.27s-6.64-.68-9.09-2.05c-2.46-1.38-4.31-3.15-5.55-5.29-1.25-2.16-1.88-4.38-1.88-6.67,0-4.21,1.92-7.53,5.77-9.96,3.83-2.43,8.86-3.65,15.06-3.65,3.05,0,6.15.31,9.3.9,3.15.59,6.15,1.44,9.02,2.54v8.94Z"/>
        <path class="cls-1" d="M219.18,80.93c-.74,2.04-2.11,3.91-4.1,5.63-1.99,1.71-4.3,3.07-6.94,4.09-2.64,1.02-5.39,1.53-8.25,1.53-4.44,0-8.5-1.18-12.15-3.57-3.66-2.38-6.57-5.61-8.75-9.68-2.17-4.08-3.26-8.63-3.26-13.68s1.06-9.68,3.19-13.67c2.13-3.98,5.02-7.12,8.67-9.41,3.66-2.29,7.71-3.43,12.15-3.43,4.07,0,7.77.95,11.1,2.85,3.33,1.9,5.92,4.55,7.77,7.98l11.94-3.75c-2.59-5.37-6.55-9.64-11.87-12.84-5.32-3.19-11.54-4.79-18.67-4.79s-13.74,1.67-19.29,5.03c-5.55,3.35-9.86,7.83-12.91,13.43-3.05,5.61-4.58,11.81-4.58,18.6,0,5.06.9,9.84,2.7,14.33s4.35,8.5,7.63,11.98,7.17,6.23,11.66,8.2c4.49,1.97,9.47,2.96,14.93,2.96,4.9,0,9.41-.79,13.53-2.36,4.12-1.57,7.68-3.72,10.69-6.45,3.01-2.73,5.26-5.86,6.74-9.37l-11.94-3.61Z"/>
        <path class="cls-1" d="M279.01,59.16l28.86-29.87h-13.18l-37.48,37.06V0h-12.22v101.33h12.22v-22.26l13.74-12.86,25.12,35.12h13.18l-30.25-42.17Z"/>
        <path class="cls-1" d="M384.02,90.72c-.6-.69-.9-1.79-.9-3.27V0h-12.22v43.86c-2.6-4.35-6.21-8.05-10.83-11.1-4.64-3.05-9.86-4.58-15.69-4.58-6.39,0-12.06,1.7-17.01,5.1-4.95,3.41-8.84,7.92-11.66,13.58-2.82,5.65-4.23,11.87-4.23,18.67,0,4.96.85,9.67,2.56,14.12,1.71,4.46,4.12,8.43,7.22,11.92,3.1,3.49,6.76,6.23,10.97,8.2,4.21,1.97,8.82,2.96,13.82,2.96s10.18-1.34,14.99-4.03c4.8-2.68,8.64-6.34,11.52-10.97v6.11c0,2.04.9,3.89,2.7,5.55,1.8,1.67,3.91,2.5,6.32,2.5,1.29,0,3.09-.19,5.41-.56v-9.44c-1.39-.09-2.39-.48-2.99-1.18ZM370.91,76.1c-.47,2.2-1.44,4.28-2.91,6.26-1.49,1.97-3.29,3.68-5.41,5.15-2.14,1.46-4.38,2.61-6.74,3.43-2.36.82-4.65,1.23-6.87,1.23-3.53,0-6.78-.68-9.79-2.05-3.01-1.38-5.64-3.3-7.91-5.77-2.27-2.47-4.03-5.31-5.27-8.52-1.25-3.2-1.87-6.59-1.87-10.16s.56-6.82,1.67-10.03c1.11-3.2,2.7-6.06,4.78-8.59,2.08-2.52,4.58-4.53,7.5-6.04,2.91-1.51,6.18-2.27,9.79-2.27,3.05,0,6.13.76,9.23,2.27,3.1,1.51,5.9,3.53,8.4,6.04,2.5,2.53,4.3,5.34,5.41,8.45v20.61Z"/>
        <path class="cls-1" d="M440.17,28.32h-2.36c-4.54.37-8.87,2.11-12.98,5.21-4.12,3.1-7.42,7.14-9.92,12.14v-16.38h-11.38v72.04h12.21v-44.7c1.95-5.27,5.26-9.41,9.93-12.42,4.67-3.01,10.07-4.56,16.18-4.65v-11.1c-.47-.09-1.03-.14-1.67-.14Z"/>
        <path class="cls-1" d="M517.9,51.19c-1.76-4.51-4.28-8.48-7.56-11.92-3.29-3.44-7.15-6.15-11.6-8.13-4.44-1.97-9.35-2.96-14.71-2.96s-10.43.99-14.92,2.96c-4.49,1.98-8.36,4.69-11.6,8.13-3.24,3.44-5.74,7.41-7.5,11.92-1.76,4.5-2.64,9.27-2.64,14.33s.88,9.69,2.64,14.2c1.76,4.5,4.26,8.47,7.5,11.92,3.24,3.44,7.08,6.15,11.52,8.13s9.39,2.96,14.85,2.96,10.44-.99,14.93-2.96c4.49-1.97,8.35-4.68,11.59-8.13,3.24-3.45,5.74-7.42,7.5-11.92,1.76-4.51,2.64-9.24,2.64-14.2s-.88-9.83-2.64-14.33ZM504.79,78.92c-2.17,4.07-5.09,7.3-8.75,9.68-3.66,2.39-7.71,3.57-12.15,3.57s-8.47-1.17-12.08-3.5c-3.61-2.33-6.5-5.52-8.67-9.55-2.17-4.03-3.27-8.52-3.27-13.46s1.09-9.57,3.27-13.6c2.17-4.03,5.06-7.26,8.67-9.68,3.61-2.43,7.63-3.65,12.08-3.65s8.5,1.19,12.15,3.57c3.66,2.39,6.57,5.59,8.75,9.62,2.17,4.03,3.26,8.52,3.26,13.46s-1.08,9.46-3.26,13.54Z"/>
        <path class="cls-1" d="M604.31,51.4c-1.71-4.45-4.1-8.43-7.15-11.92-3.05-3.49-6.66-6.25-10.83-8.26-4.16-2.03-8.75-3.04-13.74-3.04-5.46,0-10.5,1.36-15.13,4.06-4.63,2.71-8.37,6.27-11.24,10.68v-13.63h-10.83v101.61h12.22v-43.74c2.68,4.5,6.34,8.22,10.97,11.16,4.63,2.94,9.9,4.4,15.82,4.4,6.39,0,12.03-1.67,16.93-5.02,4.9-3.35,8.73-7.88,11.46-13.58,2.73-5.69,4.09-11.94,4.09-18.74,0-4.87-.85-9.53-2.56-13.98ZM592.72,75.27c-1.11,3.21-2.7,6.07-4.78,8.59-2.08,2.52-4.58,4.53-7.5,6.04-2.91,1.52-6.18,2.27-9.79,2.27-3.24,0-6.39-.75-9.44-2.26-3.05-1.51-5.74-3.54-8.05-6.11-2.31-2.55-4.16-5.4-5.55-8.5v-20.53c.46-2.19,1.43-4.25,2.91-6.17,1.48-1.92,3.29-3.63,5.41-5.15,2.13-1.5,4.38-2.67,6.74-3.49,2.36-.82,4.65-1.24,6.87-1.24,3.52,0,6.78.71,9.79,2.13,3.01,1.43,5.64,3.37,7.91,5.84,2.27,2.48,4.03,5.31,5.28,8.52,1.25,3.2,1.87,6.59,1.87,10.16s-.55,6.69-1.67,9.89Z"/>
        <path class="cls-1" d="M685.8,46.86c-3.01-5.56-7.22-10.06-12.63-13.51-5.41-3.44-11.78-5.17-19.09-5.17s-13.62,1.7-19.22,5.1c-5.61,3.41-9.98,7.9-13.12,13.5-3.15,5.61-4.72,11.81-4.72,18.6,0,5.05.91,9.83,2.71,14.33,1.8,4.5,4.35,8.47,7.63,11.92,3.28,3.44,7.16,6.15,11.66,8.13,4.49,1.97,9.46,2.96,14.92,2.96,4.9,0,9.46-.79,13.68-2.36,4.21-1.57,7.86-3.75,10.97-6.52,3.1-2.78,5.43-5.92,7.01-9.44l-10.55-2.92c-1.48,3.61-4.18,6.52-8.12,8.75-3.94,2.22-8.13,3.33-12.57,3.33-4.16,0-8.05-1.03-11.66-3.08-3.61-2.06-6.54-4.9-8.81-8.51-2.27-3.61-3.59-7.75-3.96-12.42h60.11c.09-.45.17-1.12.21-2,.05-.87.07-1.77.07-2.68,0-6.44-1.5-12.44-4.51-18ZM629.5,61.08c.37-4.66,1.69-8.78,3.96-12.35,2.27-3.57,5.2-6.36,8.81-8.37,3.61-2.01,7.54-3.02,11.8-3.02s8.33,1.01,11.94,3.02c3.61,2.02,6.57,4.8,8.88,8.37,2.31,3.56,3.66,7.68,4.03,12.35h-49.42Z"/>
      </g>
      <g>
        <path class="cls-1" d="M25.82,162.04v-21.76l-2.75-.26v-1.28h3.96c1.09,0,2.32-.04,3.67-.13.85-.07,1.73-.1,2.62-.1,3.95,0,6.92,1.05,8.9,3.15s2.97,5.05,2.97,8.85c0,2.71-.54,5.06-1.61,7.06-1.07,2-2.55,3.53-4.42,4.59-1.88,1.06-4,1.59-6.36,1.59-.46,0-1.28-.02-2.46-.07-1-.07-2.1-.1-3.28-.1h-4.06v-1.15l2.82-.39ZM32.8,162.27c1.81-.04,3.46-.46,4.95-1.25,1.49-.79,2.67-2,3.56-3.65.89-1.65,1.33-3.71,1.33-6.18,0-3.63-.86-6.39-2.59-8.29-1.73-1.9-4.14-2.85-7.24-2.85-1.49,0-2.99.09-4.52.26v21.5c1.57.31,3.08.46,4.52.46Z"/>
        <path class="cls-1" d="M51.28,162.14v-13.83l-2.36-1.02v-.82l3.8-1.05.66.33v2.26c.48-.59,1.32-1.17,2.52-1.75,1.2-.58,2.29-.87,3.28-.87.7,0,1.22.02,1.57.07v2.69c-.09-.02-.27-.08-.56-.18-.28-.1-.6-.17-.95-.21-.35-.04-.75-.07-1.21-.07-1.49,0-2.93.45-4.33,1.34v13.11l4.79.3v1.15h-10v-1.15l2.79-.3Z"/>
        <path class="cls-1" d="M68.55,145.72v16.42l2.66.3v1.15h-7.7v-1.15l2.75-.3v-13.96l-2.29-.88v-.82l4-1.05.59.3ZM68.32,138.03c.28.32.43.72.43,1.2,0,.57-.2,1.04-.59,1.41-.39.37-.85.56-1.38.56-.46,0-.85-.15-1.18-.46-.33-.31-.49-.7-.49-1.18,0-.55.2-1.02.61-1.41.4-.39.86-.59,1.36-.59.55,0,.96.16,1.25.47Z"/>
        <path class="cls-1" d="M72.26,147.03v-1.34h6.62v1.34l-2.2.3,3.9,9.37,1.57,4.65,1.57-4.46,3.41-9.57-2.16-.26v-1.38h6.1v1.34l-1.8.3-6.55,16.68h-1.67l-7.14-16.71-1.64-.26Z"/>
        <path class="cls-1" d="M105.8,146.85c1.08,1.19,1.65,2.85,1.72,4.97.04.77-.01,1.69-.16,2.79h-12.22c-.02,2.32.53,4.15,1.65,5.51,1.13,1.36,2.73,2.03,4.8,2.03.9,0,1.84-.11,2.82-.33.98-.22,1.68-.47,2.1-.75l.53,1.15c-.57.52-1.46.95-2.69,1.28-1.22.33-2.47.49-3.74.49-2.49,0-4.42-.84-5.8-2.52-1.38-1.68-2.07-3.94-2.07-6.78,0-1.79.37-3.4,1.11-4.83.74-1.43,1.77-2.56,3.1-3.39,1.32-.83,2.82-1.27,4.51-1.31,1.81-.04,3.26.53,4.34,1.72ZM97.02,148.19c-1.02,1.06-1.62,2.66-1.82,4.8h9.73l.03-.95c0-2.64-.72-4.36-2.16-5.15-.61-.2-1.31-.3-2.1-.3-1.44,0-2.67.53-3.69,1.59Z"/>
        <path class="cls-1" d="M113.75,162.17v-13.86l-2.33-1.02v-.82l3.83-1.05.62.33v2.2c.79-.63,1.82-1.22,3.1-1.75,1.28-.54,2.43-.81,3.46-.84,1.33-.07,2.39.15,3.18.64s1.35,1.3,1.7,2.43c.35,1.13.52,2.64.52,4.54v9.21l2.59.26v1.15h-7.47v-1.15l2.46-.3v-8.75c0-1.46-.11-2.64-.33-3.52-.22-.88-.6-1.54-1.15-1.97-.55-.43-1.32-.64-2.33-.64-.83,0-1.71.16-2.64.49-.93.33-1.85.81-2.77,1.44v12.95l2.49.3v1.15h-7.21v-1.15l2.26-.26Z"/>
        <path class="cls-1" d="M139.74,139.26v-1.15l4.65-.49.56.26v9.47c.79-.66,1.62-1.19,2.51-1.61.88-.41,1.91-.62,3.06-.62,1.22,0,2.37.29,3.42.88,1.06.59,1.92,1.54,2.59,2.85.67,1.31,1,2.99,1,5.05,0,1.84-.38,3.52-1.13,5.06-.75,1.54-1.81,2.77-3.16,3.69s-2.91,1.38-4.65,1.38c-.94,0-1.85-.07-2.74-.21-.88-.14-1.63-.31-2.23-.51s-.96-.37-1.06-.52v-23.07l-2.82-.46ZM146.26,162.25c.72.21,1.59.31,2.62.31s2.08-.3,3.03-.89c.95-.59,1.73-1.51,2.33-2.75.6-1.25.9-2.8.9-4.65,0-2.49-.55-4.32-1.64-5.49-1.09-1.17-2.44-1.75-4.03-1.75-.92,0-1.77.18-2.57.52-.8.35-1.45.77-1.95,1.25v12.52c.15.42.59.73,1.31.93Z"/>
        <path class="cls-1" d="M162.84,169.61c.96,0,1.93-.42,2.9-1.26.97-.84,1.8-2.37,2.47-4.57h-.56l-6.55-16.48-1.87-.23v-1.38h7.08v1.38l-2.52.26,4,11.21,1.34,3.83,1.05-3.7,3.47-11.37-2.62-.23v-1.38h6.65v1.38l-1.9.2c-.81,2.4-1.55,4.61-2.23,6.62-.68,2.01-1.28,3.78-1.8,5.31-.87,2.62-1.44,4.27-1.7,4.95-.92,2.38-1.86,4.19-2.82,5.42-.96,1.23-2.11,1.99-3.44,2.28-.66-.07-1-.1-1.05-.1-.22,0-.44-.02-.66-.07s-.38-.09-.49-.13v-2.1c.44.11.85.16,1.25.16Z"/>
        <path class="cls-1" d="M189.68,162.04v-21.66l-2.72-.2v-1.44h3.9c.48,0,1.15-.03,2-.1,1.53-.09,2.77-.13,3.74-.13,2.62,0,4.65.56,6.08,1.69,1.43,1.13,2.15,3.04,2.15,5.75,0,1.64-.43,3.08-1.28,4.31-.85,1.23-1.97,2.18-3.36,2.83s-2.85.98-4.37.98h-1.9c-.9,0-1.49.02-1.77.07v7.9l4.39.39v1.15h-10v-1.15l3.15-.39ZM195.55,152.76c2.03-.02,3.66-.52,4.9-1.49,1.23-.97,1.85-2.71,1.85-5.23,0-2.08-.57-3.62-1.72-4.64-1.15-1.02-2.86-1.49-5.13-1.43l-.92.07c-.13,0-.46.02-.98.07-.52.04-1,.12-1.41.23v12.22c.87.13,2.01.2,3.41.2Z"/>
        <path class="cls-1" d="M207.61,147.09v-1.02l3.57-.69.49.3v10.98c0,1.35.1,2.41.29,3.16.2.75.56,1.32,1.1,1.69.54.37,1.32.56,2.34.56s1.99-.24,2.95-.72c.96-.48,1.66-.94,2.1-1.38v-12.42l-2-.33v-1.08l3.97-.75.39.26v16.75h2v1.08c-.33.15-.75.29-1.26.41-.51.12-.97.18-1.36.18-1.01,0-1.51-.42-1.51-1.25v-1.47c-2.05,1.7-4.14,2.56-6.26,2.56-1.6,0-2.76-.32-3.51-.97-.74-.64-1.2-1.47-1.38-2.49-.18-1.02-.27-2.47-.3-4.38v-8.65l-1.64-.33Z"/>
        <path class="cls-1" d="M230.68,162.14v-13.83l-2.36-1.02v-.82l3.8-1.05.66.33v2.26c.48-.59,1.32-1.17,2.52-1.75,1.2-.58,2.29-.87,3.28-.87.7,0,1.22.02,1.57.07v2.69c-.09-.02-.27-.08-.56-.18-.28-.1-.6-.17-.95-.21-.35-.04-.75-.07-1.21-.07-1.49,0-2.93.45-4.33,1.34v13.11l4.79.3v1.15h-10v-1.15l2.79-.3Z"/>
        <path class="cls-1" d="M256.72,146.03c1.06.6,1.92,1.56,2.59,2.88.67,1.32,1,3.03,1,5.13,0,1.81-.38,3.47-1.15,4.98-.77,1.51-1.83,2.7-3.2,3.59-1.37.89-2.92,1.33-4.67,1.33-1.22,0-2.44-.22-3.64-.66l.07,4.62v2.43l3.34.3v1.15h-8.13v-1.15l2.36-.33v-21.99l-2.29-1.02v-.82l3.8-1.05.62.33v1.8c.66-.66,1.49-1.22,2.49-1.7,1-.48,2.12-.72,3.34-.72s2.4.3,3.46.9ZM249.67,147.41c-.71.36-1.38.8-2.02,1.33l.03,12.36c.28.44.74.79,1.38,1.07.63.27,1.44.42,2.43.44,1.11,0,2.15-.29,3.11-.87.96-.58,1.74-1.51,2.34-2.79.6-1.28.9-2.9.9-4.87,0-2.47-.54-4.29-1.61-5.46-1.07-1.17-2.39-1.75-3.97-1.75-1.03,0-1.9.18-2.61.54Z"/>
        <path class="cls-1" d="M276.46,146.39c1.16.84,2.01,1.96,2.56,3.36.55,1.4.82,2.95.82,4.65-.02,1.84-.4,3.48-1.13,4.93-.73,1.45-1.72,2.59-2.97,3.41-1.25.82-2.61,1.23-4.1,1.23-1.84,0-3.35-.44-4.54-1.31-1.19-.87-2.06-2.03-2.61-3.47s-.82-3.03-.82-4.75c0-1.86.39-3.49,1.18-4.9.79-1.41,1.83-2.5,3.13-3.26,1.3-.76,2.68-1.15,4.15-1.15,1.73,0,3.17.42,4.33,1.26ZM267.61,148.54c-.92,1.31-1.38,3.17-1.38,5.57s.48,4.39,1.44,5.96c.96,1.57,2.37,2.36,4.23,2.36s3.16-.66,4.03-1.98c.87-1.32,1.31-3.28,1.31-5.88,0-2.38-.46-4.31-1.39-5.78-.93-1.47-2.31-2.21-4.15-2.21s-3.18.66-4.1,1.97Z"/>
        <path class="cls-1" d="M285.37,159.09l.53,2.1c.57.46,1.17.79,1.8.98s1.35.3,2.16.3c1.29,0,2.32-.27,3.1-.82.77-.55,1.16-1.37,1.16-2.46,0-.57-.16-1.05-.48-1.44-.32-.39-.72-.73-1.2-1-.48-.27-1.14-.6-1.97-.97l-1.15-.52c-1.51-.7-2.7-1.45-3.57-2.24-.87-.8-1.31-1.81-1.31-3.03,0-1.07.32-1.97.95-2.69.63-.72,1.44-1.26,2.41-1.62.97-.36,1.97-.54,3-.54.96,0,1.86.11,2.69.34.83.23,1.49.51,1.97.84v3.21h-1.05l-.59-1.87c-.74-.74-1.77-1.11-3.08-1.11s-2.22.26-2.93.79c-.71.52-1.06,1.29-1.06,2.29,0,.77.29,1.38.88,1.84.59.46,1.51.99,2.75,1.61l.82.39c.18.09.8.37,1.87.84,1.07.47,1.9,1.08,2.49,1.82.59.74.88,1.6.88,2.56,0,1.68-.63,2.99-1.89,3.92-1.26.93-2.88,1.39-4.87,1.39s-3.86-.46-5.47-1.38v-3.51h1.15Z"/>
        <path class="cls-1" d="M312.89,146.85c1.08,1.19,1.65,2.85,1.72,4.97.04.77-.01,1.69-.16,2.79h-12.22c-.02,2.32.53,4.15,1.65,5.51,1.13,1.36,2.73,2.03,4.8,2.03.9,0,1.84-.11,2.82-.33.98-.22,1.68-.47,2.1-.75l.53,1.15c-.57.52-1.46.95-2.69,1.28-1.22.33-2.47.49-3.74.49-2.49,0-4.42-.84-5.8-2.52-1.38-1.68-2.07-3.94-2.07-6.78,0-1.79.37-3.4,1.11-4.83.74-1.43,1.77-2.56,3.1-3.39,1.32-.83,2.82-1.27,4.51-1.31,1.81-.04,3.26.53,4.34,1.72ZM304.1,148.19c-1.02,1.06-1.62,2.66-1.82,4.8h9.73l.03-.95c0-2.64-.72-4.36-2.16-5.15-.61-.2-1.31-.3-2.1-.3-1.44,0-2.67.53-3.69,1.59Z"/>
        <path class="cls-1" d="M321.13,159.22c1.09.24,1.92.86,2.47,1.87.56,1,.84,2.01.84,3.01.02,1.66-.46,3.12-1.44,4.38-.98,1.26-2.12,2.16-3.41,2.7l-.62-.82v-.33c.5-.18.99-.51,1.47-1s.87-1.09,1.16-1.79c.29-.7.44-1.41.44-2.13,0-.9-.23-1.69-.7-2.38-.47-.69-1-1.07-1.59-1.13v-.59l1.38-1.8Z"/>
        <path class="cls-1" d="M351.92,138.75c.86.16,1.76.38,2.7.64l1.05.26-.23,4.33h-1.31l-.69-2.69c-.72-.46-1.49-.79-2.31-.98s-1.79-.3-2.9-.3c-1.64,0-3.18.44-4.62,1.31-1.44.87-2.6,2.15-3.49,3.82-.88,1.67-1.33,3.67-1.33,5.98,0,2.12.37,4.05,1.1,5.78.73,1.74,1.81,3.12,3.24,4.16,1.43,1.04,3.15,1.56,5.16,1.56,1.31,0,2.43-.17,3.36-.51s1.67-.8,2.21-1.39l.75-2.52h1.11v4.36c-.35.02-.97.17-1.87.46-1.07.33-2.05.58-2.95.75s-2,.26-3.31.26c-2.14,0-4.07-.51-5.8-1.54-1.73-1.03-3.08-2.46-4.06-4.31-.98-1.85-1.47-3.93-1.47-6.24,0-2.67.59-5.02,1.77-7.06,1.18-2.04,2.75-3.62,4.7-4.72,1.96-1.1,4.06-1.66,6.31-1.66,1.05,0,2,.08,2.87.25Z"/>
        <path class="cls-1" d="M361.83,162.14v-13.83l-2.36-1.02v-.82l3.8-1.05.66.33v2.26c.48-.59,1.32-1.17,2.52-1.75,1.2-.58,2.29-.87,3.28-.87.7,0,1.22.02,1.57.07v2.69c-.09-.02-.27-.08-.56-.18-.28-.1-.6-.17-.95-.21-.35-.04-.75-.07-1.21-.07-1.49,0-2.93.45-4.33,1.34v13.11l4.79.3v1.15h-10v-1.15l2.79-.3Z"/>
        <path class="cls-1" d="M385.33,146.67c1.11.85,1.67,2.35,1.67,4.49l-.03,11.24h2.06v.92c-.79.39-1.7.59-2.75.59-.48,0-.84-.07-1.06-.2-.23-.13-.38-.34-.44-.64s-.1-.75-.1-1.36c-1.22,1.49-3.1,2.23-5.64,2.23-.94,0-1.8-.21-2.57-.62s-1.39-.99-1.84-1.74c-.45-.74-.67-1.58-.67-2.52,0-1.46.58-2.65,1.74-3.56,1.16-.91,2.55-1.55,4.18-1.93s3.21-.57,4.74-.57v-1.54c0-1.64-.4-2.76-1.21-3.38-.81-.61-1.97-.92-3.47-.92-.66,0-1.45.13-2.38.38-.93.25-1.74.56-2.44.93l-.46-1.18c.72-.59,1.72-1.05,2.98-1.39,1.27-.34,2.35-.51,3.25-.51,1.86,0,3.34.43,4.46,1.28ZM378.94,155.37c-1.73.64-2.59,1.72-2.59,3.23,0,2.45,1.39,3.67,4.16,3.67.79,0,1.56-.17,2.31-.52.75-.35,1.33-.71,1.72-1.08l.03-6.26c-2.03,0-3.91.32-5.64.97Z"/>
        <path class="cls-1" d="M395.39,162.14v-14.52h-3.67v-1.05l3.67-.79v-1.44c0-1.53.33-2.87,1-4.03.67-1.16,1.49-2.05,2.47-2.69.98-.63,1.92-.95,2.82-.95,1.09,0,1.81.09,2.16.26v2.26c-.17-.11-.51-.21-1-.31-.49-.1-1.08-.15-1.75-.15s-1.25.1-1.72.31c-.47.21-.85.64-1.13,1.31-.28.67-.43,1.63-.43,2.9v2.56h4.98v1.8h-4.98v14.55l3.7.26v1.15h-9.47v-1.15l3.34-.3Z"/>
        <path class="cls-1" d="M410.2,145.69h5.67v1.7h-5.7v9.01c0,1.73.04,2.97.13,3.72.09.75.27,1.27.54,1.56.27.28.72.43,1.33.43s1.27-.11,1.98-.33c.71-.22,1.21-.43,1.49-.62l.43,1.25c-.41.46-1.11.84-2.1,1.13-.98.3-1.87.44-2.66.44-1.14,0-2-.35-2.61-1.05-.6-.7-.9-1.81-.9-3.34v-12.19h-2.49v-1.02l.98-.23c.61-.13,1.03-.25,1.25-.36.22-.11.41-.35.59-.72.15-.5.32-1.17.49-2.02.17-.84.27-1.39.29-1.65h1.28v4.29Z"/>
        <path class="cls-1" d="M431.79,146.85c1.08,1.19,1.65,2.85,1.72,4.97.04.77-.01,1.69-.16,2.79h-12.22c-.02,2.32.53,4.15,1.65,5.51,1.13,1.36,2.73,2.03,4.8,2.03.9,0,1.84-.11,2.82-.33.98-.22,1.68-.47,2.1-.75l.53,1.15c-.57.52-1.46.95-2.69,1.28-1.22.33-2.47.49-3.74.49-2.49,0-4.42-.84-5.8-2.52-1.38-1.68-2.07-3.94-2.07-6.78,0-1.79.37-3.4,1.11-4.83.74-1.43,1.77-2.56,3.1-3.39,1.32-.83,2.82-1.27,4.51-1.31,1.81-.04,3.26.53,4.34,1.72ZM423,148.19c-1.02,1.06-1.62,2.66-1.82,4.8h9.73l.03-.95c0-2.64-.72-4.36-2.16-5.15-.61-.2-1.31-.3-2.1-.3-1.44,0-2.67.53-3.69,1.59Z"/>
        <path class="cls-1" d="M451.83,137.95v24.45h2.16v1.05c-.35.17-.82.32-1.41.43-.59.11-1.11.16-1.57.16-.66,0-1.08-.14-1.28-.43-.2-.28-.27-.84-.23-1.67-.48.5-1.2.97-2.16,1.39-.96.43-2.12.64-3.47.64-1.22,0-2.37-.32-3.43-.97-1.06-.64-1.91-1.64-2.56-3-.65-1.35-.97-3.05-.97-5.08,0-1.86.4-3.53,1.2-5.03.8-1.5,1.89-2.67,3.28-3.51,1.39-.84,2.92-1.26,4.6-1.26,1.25,0,2.38.2,3.41.59v-5.93l-3.31-.43v-1.18l5.11-.56.62.33ZM442.67,147.37c-.97.51-1.78,1.36-2.42,2.54-.65,1.18-.97,2.71-.97,4.59,0,1.68.26,3.09.77,4.23.51,1.14,1.18,1.97,2.02,2.51.83.54,1.74.8,2.72.8.87,0,1.73-.14,2.56-.41.83-.27,1.52-.67,2.06-1.2v-12.42c-.74-.94-1.99-1.41-3.74-1.41-1.03,0-2.03.26-3,.77Z"/>
        <path class="cls-1" d="M463.03,147.06v-1.38h6.62v1.38l-2.43.3,3.44,10.98.82,3.15.69-3.18,3.34-12.62h2.16l3.44,12.62.85,3.21.82-3.08,2.88-11.11-2.07-.26v-1.38h6.16v1.34l-2.03.33-4.85,16.65h-2.23l-3.74-13.01-.39-2.36-.62,2.36-3.54,13.01h-2.03l-5.57-16.71-1.74-.23Z"/>
        <path class="cls-1" d="M496.92,145.72v16.42l2.66.3v1.15h-7.7v-1.15l2.75-.3v-13.96l-2.29-.88v-.82l4-1.05.59.3ZM496.69,138.03c.28.32.43.72.43,1.2,0,.57-.2,1.04-.59,1.41-.39.37-.85.56-1.38.56-.46,0-.85-.15-1.18-.46-.33-.31-.49-.7-.49-1.18,0-.55.2-1.02.61-1.41.4-.39.86-.59,1.36-.59.55,0,.96.16,1.25.47Z"/>
        <path class="cls-1" d="M507.44,145.69h5.67v1.7h-5.7v9.01c0,1.73.04,2.97.13,3.72.09.75.27,1.27.54,1.56.27.28.72.43,1.33.43s1.27-.11,1.98-.33c.71-.22,1.21-.43,1.49-.62l.43,1.25c-.41.46-1.11.84-2.1,1.13-.98.3-1.87.44-2.66.44-1.14,0-2-.35-2.61-1.05-.6-.7-.9-1.81-.9-3.34v-12.19h-2.49v-1.02l.98-.23c.61-.13,1.03-.25,1.25-.36.22-.11.41-.35.59-.72.15-.5.32-1.17.49-2.02.17-.84.27-1.39.29-1.65h1.28v4.29Z"/>
        <path class="cls-1" d="M518.88,162.14v-22.32l-2.82-.46v-1.18l4.52-.56.69.36-.03,7.21v2.69c.92-.72,2.01-1.32,3.28-1.8,1.27-.48,2.33-.72,3.18-.72,1.44,0,2.55.28,3.33.84.78.56,1.32,1.45,1.64,2.67.32,1.22.46,2.91.44,5.05v8.23l2.42.3v1.15h-7.57v-1.15l2.72-.3v-7.01c0-1.99-.09-3.52-.28-4.6-.19-1.08-.57-1.89-1.15-2.43-.58-.54-1.46-.8-2.64-.8-.83,0-1.74.14-2.74.43-.99.28-1.86.68-2.61,1.18v13.24l2.52.3v1.15h-7.34v-1.15l2.43-.3Z"/>
        <path class="cls-1" d="M548.96,162.04v-21.66l-2.72-.2v-1.44h3.9c.48,0,1.15-.03,2-.1,1.53-.09,2.77-.13,3.74-.13,2.62,0,4.65.56,6.08,1.69,1.43,1.13,2.15,3.04,2.15,5.75,0,1.64-.43,3.08-1.28,4.31-.85,1.23-1.97,2.18-3.36,2.83s-2.85.98-4.37.98h-1.9c-.9,0-1.49.02-1.77.07v7.9l4.39.39v1.15h-10v-1.15l3.15-.39ZM554.83,152.76c2.03-.02,3.66-.52,4.9-1.49,1.23-.97,1.85-2.71,1.85-5.23,0-2.08-.57-3.62-1.72-4.64-1.15-1.02-2.86-1.49-5.13-1.43l-.92.07c-.13,0-.46.02-.98.07-.52.04-1,.12-1.41.23v12.22c.87.13,2.01.2,3.41.2Z"/>
        <path class="cls-1" d="M578.36,146.67c1.11.85,1.67,2.35,1.67,4.49l-.03,11.24h2.06v.92c-.79.39-1.7.59-2.75.59-.48,0-.84-.07-1.06-.2-.23-.13-.38-.34-.44-.64s-.1-.75-.1-1.36c-1.22,1.49-3.1,2.23-5.64,2.23-.94,0-1.8-.21-2.57-.62s-1.39-.99-1.84-1.74c-.45-.74-.67-1.58-.67-2.52,0-1.46.58-2.65,1.74-3.56,1.16-.91,2.55-1.55,4.18-1.93s3.21-.57,4.74-.57v-1.54c0-1.64-.4-2.76-1.21-3.38-.81-.61-1.97-.92-3.47-.92-.66,0-1.45.13-2.38.38-.93.25-1.74.56-2.44.93l-.46-1.18c.72-.59,1.72-1.05,2.98-1.39,1.27-.34,2.35-.51,3.25-.51,1.86,0,3.34.43,4.46,1.28ZM571.97,155.37c-1.73.64-2.59,1.72-2.59,3.23,0,2.45,1.39,3.67,4.16,3.67.79,0,1.56-.17,2.31-.52.75-.35,1.33-.71,1.72-1.08l.03-6.26c-2.03,0-3.91.32-5.64.97Z"/>
        <path class="cls-1" d="M587.08,159.09l.53,2.1c.57.46,1.17.79,1.8.98s1.35.3,2.16.3c1.29,0,2.32-.27,3.1-.82.77-.55,1.16-1.37,1.16-2.46,0-.57-.16-1.05-.48-1.44-.32-.39-.72-.73-1.2-1-.48-.27-1.14-.6-1.97-.97l-1.15-.52c-1.51-.7-2.7-1.45-3.57-2.24-.87-.8-1.31-1.81-1.31-3.03,0-1.07.32-1.97.95-2.69.63-.72,1.44-1.26,2.41-1.62.97-.36,1.97-.54,3-.54.96,0,1.86.11,2.69.34.83.23,1.49.51,1.97.84v3.21h-1.05l-.59-1.87c-.74-.74-1.77-1.11-3.08-1.11s-2.22.26-2.93.79c-.71.52-1.06,1.29-1.06,2.29,0,.77.29,1.38.88,1.84.59.46,1.51.99,2.75,1.61l.82.39c.18.09.8.37,1.87.84,1.07.47,1.9,1.08,2.49,1.82.59.74.88,1.6.88,2.56,0,1.68-.63,2.99-1.89,3.92-1.26.93-2.88,1.39-4.87,1.39s-3.86-.46-5.47-1.38v-3.51h1.15Z"/>
        <path class="cls-1" d="M603.76,159.09l.53,2.1c.57.46,1.17.79,1.8.98s1.35.3,2.16.3c1.29,0,2.32-.27,3.1-.82.77-.55,1.16-1.37,1.16-2.46,0-.57-.16-1.05-.48-1.44-.32-.39-.72-.73-1.2-1-.48-.27-1.14-.6-1.97-.97l-1.15-.52c-1.51-.7-2.7-1.45-3.57-2.24-.87-.8-1.31-1.81-1.31-3.03,0-1.07.32-1.97.95-2.69.63-.72,1.44-1.26,2.41-1.62.97-.36,1.97-.54,3-.54.96,0,1.86.11,2.69.34.83.23,1.49.51,1.97.84v3.21h-1.05l-.59-1.87c-.74-.74-1.77-1.11-3.08-1.11s-2.22.26-2.93.79c-.71.52-1.06,1.29-1.06,2.29,0,.77.29,1.38.88,1.84.59.46,1.51.99,2.75,1.61l.82.39c.18.09.8.37,1.87.84,1.07.47,1.9,1.08,2.49,1.82.59.74.88,1.6.88,2.56,0,1.68-.63,2.99-1.89,3.92-1.26.93-2.88,1.39-4.87,1.39s-3.86-.46-5.47-1.38v-3.51h1.15Z"/>
        <path class="cls-1" d="M623.65,145.72v16.42l2.66.3v1.15h-7.7v-1.15l2.75-.3v-13.96l-2.29-.88v-.82l4-1.05.59.3ZM623.42,138.03c.28.32.43.72.43,1.2,0,.57-.2,1.04-.59,1.41-.39.37-.85.56-1.38.56-.46,0-.85-.15-1.18-.46-.33-.31-.49-.7-.49-1.18,0-.55.2-1.02.61-1.41.4-.39.86-.59,1.36-.59.55,0,.96.16,1.25.47Z"/>
        <path class="cls-1" d="M641.81,146.39c1.16.84,2.01,1.96,2.56,3.36.55,1.4.82,2.95.82,4.65-.02,1.84-.4,3.48-1.13,4.93-.73,1.45-1.72,2.59-2.97,3.41-1.25.82-2.61,1.23-4.1,1.23-1.84,0-3.35-.44-4.54-1.31-1.19-.87-2.06-2.03-2.61-3.47s-.82-3.03-.82-4.75c0-1.86.39-3.49,1.18-4.9.79-1.41,1.83-2.5,3.13-3.26,1.3-.76,2.68-1.15,4.15-1.15,1.73,0,3.17.42,4.33,1.26ZM632.96,148.54c-.92,1.31-1.38,3.17-1.38,5.57s.48,4.39,1.44,5.96c.96,1.57,2.37,2.36,4.23,2.36s3.16-.66,4.03-1.98c.87-1.32,1.31-3.28,1.31-5.88,0-2.38-.46-4.31-1.39-5.78-.93-1.47-2.31-2.21-4.15-2.21s-3.18.66-4.1,1.97Z"/>
        <path class="cls-1" d="M651.34,162.17v-13.86l-2.33-1.02v-.82l3.83-1.05.62.33v2.2c.79-.63,1.82-1.22,3.1-1.75,1.28-.54,2.43-.81,3.46-.84,1.33-.07,2.39.15,3.18.64s1.35,1.3,1.7,2.43c.35,1.13.52,2.64.52,4.54v9.21l2.59.26v1.15h-7.47v-1.15l2.46-.3v-8.75c0-1.46-.11-2.64-.33-3.52-.22-.88-.6-1.54-1.15-1.97-.55-.43-1.32-.64-2.33-.64-.83,0-1.71.16-2.64.49-.93.33-1.85.81-2.77,1.44v12.95l2.49.3v1.15h-7.21v-1.15l2.26-.26Z"/>
      </g>
    </g>
  </g>
</svg>