<?xml version="1.0" encoding="UTF-8"?>
<svg id="Layer_2" xmlns="http://www.w3.org/2000/svg" viewBox="0 0 483.73 606.41">
  <defs>
    <style>
      .cls-1 {
        fill: #231f20;
      }

      .cls-2, .cls-3 {
        fill: #fff;
      }

      .cls-4 {
        fill: #ed1c24;
      }

      .cls-5 {
        fill: none;
      }

      .cls-3 {
        stroke: #fff;
        stroke-linejoin: round;
        stroke-width: 2.39px;
      }
    </style>
  </defs>
  <g id="Layer_3">
    <g id="White">
      <rect class="cls-5" width="483.73" height="606.41"/>
      <path class="cls-3" d="M424.74,133.2v388.59c-4.94.02-4.96.05-4.99.05h-8.31c-2.75,0-4.97-2.22-4.97-4.97v-95.29c0-4.94-3.56-9.33-8.4-9.9-.18-.04-.35-.05-.53-.06-2.89-.19-5.52.92-7.4,2.77-1.72,1.73-2.8,4.12-2.8,6.77v115.87c0,6.07-4.61,11.08-10.53,11.68h-.01c-.38.04-.78.06-1.18.06-3.24,0-6.18-1.32-8.31-3.44-2.12-2.12-3.43-5.06-3.43-8.3v-159.7c0-2.95-2.06-5.57-4.79-6.18-.49-.11-1-.14-1.53-.12-1.52.08-2.87.73-3.89,1.73-1.08,1.09-1.75,2.58-1.75,4.23v139.88c0,2.75-2.22,4.97-4.97,4.97h-6.31c-2.75,0-4.97-2.22-4.97-4.97v-55.74c0-4.91-3.56-9.28-8.39-9.86-.18-.04-.35-.05-.53-.06-2.89-.19-5.54.9-7.41,2.77-1.73,1.73-2.8,4.12-2.8,6.77v56.12c0,2.75-2.22,4.97-4.97,4.97h-3.85c-2.75,0-4.97-2.22-4.97-4.97v-78.73c0-2.89-2.06-5.3-4.77-5.86h-.02c-.38-.08-.78-.12-1.18-.12-1.65,0-3.14.67-4.22,1.75-1.09,1.08-1.76,2.58-1.76,4.23v105.15c0,2.74-2.22,4.96-4.97,4.96h-60.34c-2.75,0-4.97-2.22-4.97-4.96v-105.15c0-2.89-2.04-5.3-4.77-5.86h-.02c-.38-.08-.78-.12-1.18-.12-1.65,0-3.14.67-4.23,1.75-1.08,1.08-1.75,2.58-1.75,4.23v78.73c0,2.75-2.22,4.97-4.97,4.97h-15.27c-2.75,0-4.97-2.22-4.97-4.97v-56.12c0-2.64-1.06-5.03-2.8-6.77-1.46-1.46-3.4-2.45-5.55-2.71-.61-.08-1.23-.11-1.87-.06-5.09.33-8.92,4.83-8.92,9.92v55.74c0,2.75-2.22,4.97-4.97,4.97h-6.31c-2.75,0-4.97-2.22-4.97-4.97v-139.88c0-1.65-.67-3.14-1.75-4.23-.81-.81-1.85-1.39-3.02-1.61-.27-.07-.56-.11-.86-.12-3.48-.19-6.32,2.82-6.32,6.3v159.7c0,6.07-4.61,11.08-10.53,11.68h-.01c-.38.04-.78.06-1.18.06-3.25,0-6.18-1.32-8.31-3.44-2.12-2.12-3.43-5.06-3.43-8.3v-115.87c0-2.64-1.08-5.03-2.8-6.77-1.46-1.45-3.4-2.44-5.54-2.71-.61-.08-1.23-.11-1.86-.06-5.11.32-8.93,4.84-8.93,9.96v95.29c0,2.75-2.22,4.97-4.97,4.97h-27.22s-.05-.02-.05-.05V135.52c0-40.28,32.65-72.93,72.92-72.93h145.35c2.68,0,5.34,0,7.99.01,6,.02,11.91.06,17.69.07,2.09,0,4.16.01,6.22.01,4.81,0,9.53-.02,14.13-.1h28.69c39,0,70.63,31.61,70.63,70.61Z"/>
      <g>
        <g>
          <path class="cls-1" d="M279.13,216.02l22.08-21.8c-2.65-14.83-10.71-27.77-22.08-36.72v58.53Z"/>
          <path class="cls-1" d="M275.89,186.17v-31.06c-9.68-6.63-21.4-10.52-34.03-10.52-2.28,0-4.52.13-6.74.38l40.76,41.2Z"/>
          <path class="cls-1" d="M192.1,170.85c-6.63,9.68-10.52,21.4-10.52,34.03,0,2.54.16,5.04.46,7.5l41.17-41.53h-31.11Z"/>
          <path class="cls-1" d="M291.63,238.91c6.63-9.68,10.52-21.4,10.52-34.03,0-2.25-.13-4.48-.37-6.67l-41.2,40.7h31.05Z"/>
          <path class="cls-1" d="M207.84,223.57v31.08c9.68,6.63,21.4,10.52,34.03,10.52,2.37,0,4.72-.14,7.02-.41l-41.05-41.19Z"/>
          <path class="cls-1" d="M252.97,167.61l-21.83-22.06c-14.8,2.66-27.72,10.72-36.66,22.06h58.49Z"/>
          <path class="cls-1" d="M230.93,242.15l21.94,22.01c14.68-2.71,27.5-10.73,36.39-22.01h-58.32Z"/>
          <path class="cls-1" d="M204.6,194.24l-21.92,22.11c2.79,14.49,10.76,27.13,21.92,35.91v-58.03Z"/>
        </g>
        <g>
          <circle class="cls-4" cx="241.03" cy="204.08" r="14.48"/>
          <path class="cls-2" d="M246.41,205.02l-7.42,4.29c-.58.34-1.31-.08-1.31-.76v-8.57c0-.67.73-1.09,1.31-.76l7.42,4.29c.58.34.58,1.18,0,1.51Z"/>
        </g>
      </g>
    </g>
  </g>
</svg>